<svg id="visual" viewBox="0 0 1366 300" width="1366" height="300" xmlns="http://www.w3.org/2000/svg" xmlns:xlink="http://www.w3.org/1999/xlink" version="1.1"><path d="M0 238L195 151L390 165L585 206L781 180L976 178L1171 191L1366 246L1366 0L1171 0L976 0L781 0L585 0L390 0L195 0L0 0Z" fill="#0ae7f5"></path><path d="M0 139L195 205L390 141L585 202L781 157L976 136L1171 159L1366 165L1366 0L1171 0L976 0L781 0L585 0L390 0L195 0L0 0Z" fill="#33b7cf"></path><path d="M0 114L195 107L390 134L585 144L781 158L976 126L1171 147L1366 98L1366 0L1171 0L976 0L781 0L585 0L390 0L195 0L0 0Z" fill="#428aa2"></path><path d="M0 117L195 83L390 108L585 75L781 75L976 89L1171 92L1366 106L1366 0L1171 0L976 0L781 0L585 0L390 0L195 0L0 0Z" fill="#416071"></path><path d="M0 46L195 60L390 32L585 59L781 61L976 68L1171 67L1366 46L1366 0L1171 0L976 0L781 0L585 0L390 0L195 0L0 0Z" fill="#343a40"></path></svg>